<?xml version="1.0" encoding="iso-8859-1"?>
<!-- Uploaded to: SVG Repo, www.svgrepo.com, Generator: SVG Repo Mixer Tools -->
<svg height="800px" width="800px" version="1.1" id="Layer_1" xmlns="http://www.w3.org/2000/svg" xmlns:xlink="http://www.w3.org/1999/xlink" 
	 viewBox="0 0 511.999 511.999" xml:space="preserve">
<g>
	<path style="fill:#2C3B73;" d="M495.982,299.166h-50.519c-8.836,0-15.999-7.163-15.999-15.999s7.163-15.999,15.999-15.999h21.086
		L384.222,140.13l-11.684,11.683c-6.247,6.247-16.377,6.247-22.626,0c-6.248-6.247-6.248-16.377,0-22.626l25.667-25.667
		c7.187-7.186,19.201-5.934,24.738,2.612l109.088,168.334C516.296,285.095,508.647,299.166,495.982,299.166z"/>
	<path style="fill:#2C3B73;" d="M66.537,299.166H16.018c-12.666,0-20.314-14.071-13.426-24.699L111.68,106.133
		c5.528-8.531,17.538-9.815,24.738-2.612l25.667,25.667c6.248,6.247,6.248,16.377,0,22.626c-6.247,6.247-16.377,6.247-22.626,0
		l-11.684-11.683L45.451,267.168h21.086c8.836,0,15.999,7.163,15.999,15.999S75.373,299.166,66.537,299.166z"/>
	<path style="fill:#2C3B73;" d="M200.8,359.878c-6.507-5.977-6.936-16.098-0.958-22.604c25.79-28.075,86.563-28.023,112.313-0.011
		c5.979,6.505,5.555,16.626-0.951,22.605c-6.506,5.979-16.627,5.554-22.605-0.951c-13.03-14.176-52.162-14.181-65.193,0.002
		C217.431,365.424,207.309,365.86,200.8,359.878z"/>
</g>
<path style="fill:#48AEE2;" d="M211.624,413.163H66.537c-8.836,0-15.999-7.163-15.999-15.999V283.167
	c0-8.836,7.163-15.999,15.999-15.999h145.087c8.836,0,15.999,7.163,15.999,15.999v113.997
	C227.623,406,220.459,413.163,211.624,413.163z"/>
<path style="fill:#3797D3;" d="M445.463,413.163H300.377c-8.836,0-15.999-7.163-15.999-15.999V283.167
	c0-8.836,7.163-15.999,15.999-15.999h145.087c8.836,0,15.999,7.163,15.999,15.999v113.997
	C461.462,406,454.299,413.163,445.463,413.163z"/>
</svg>