<?xml version="1.0" encoding="UTF-8" standalone="no"?>
<svg
   id="Layer_2"
   data-name="Layer 2"
   viewBox="0 0 31.02 31.02"
   version="1.1"
   width="1em"
   height="1em"
   style="vertical-align: middle; transform: translate(0, -0.125em);"
   xmlns="http://www.w3.org/2000/svg"
   xmlns:svg="http://www.w3.org/2000/svg">
  <defs
     id="defs1">
    <style
       id="style1">
      .cls-1, .cls-2 {
        fill: currentColor;
      }

      .cls-2 {
        fill-rule: evenodd;
      }
    </style>
  </defs>
  <g
     id="Layer_1-2"
     data-name="Layer 1">
    <g
       id="g30">
      <g
         id="g29"
         transform="translate(-0.00499977,-0.00499977)">
        <g
           id="g28">
          <g
             id="g22">
            <path
               class="cls-2"
               d="M 2.52,15.04 C 2.96,11.99 6.02,11.16 6.31,8.38 4.93,8.99 3.28,8.8 2.07,7.8 0.73,10.21 0.66,12.58 2.52,15.04 Z"
               id="path15" />
            <path
               class="cls-2"
               d="M 8.43,6.19 C 9.99,5.96 11.33,4.86 12.61,3.78 14.38,2.28 16.85,0.43 19.2,0.61 15,-0.69 10.45,0.24 7.68,1.94 8.75,3.12 8.99,4.78 8.43,6.18 Z"
               id="path16" />
            <path
               class="cls-2"
               d="m 28.5,15.99 c -0.44,3.05 -3.5,3.88 -3.79,6.66 1.38,-0.61 3.03,-0.42 4.24,0.58 1.34,-2.41 1.41,-4.78 -0.45,-7.24 z"
               id="path17" />
            <path
               class="cls-2"
               d="m 22.59,24.84 c -1.56,0.23 -2.9,1.33 -4.18,2.41 -1.77,1.5 -4.24,3.35 -6.59,3.17 4.2,1.3 8.74,0.37 11.51,-1.33 -1.07,-1.18 -1.31,-2.84 -0.75,-4.24 z"
               id="path18" />
            <path
               class="cls-2"
               d="m 15.99,2.52 c 3.05,0.44 3.87,3.5 6.66,3.79 C 22.04,4.93 22.23,3.28 23.23,2.07 20.82,0.73 18.45,0.66 15.99,2.52 Z"
               id="path19" />
            <path
               class="cls-2"
               d="m 24.84,8.43 c 0.23,1.56 1.33,2.9 2.41,4.18 1.5,1.77 3.35,4.24 3.17,6.59 1.3,-4.2 0.37,-8.74 -1.33,-11.51 -1.18,1.07 -2.84,1.32 -4.24,0.75 z"
               id="path20" />
            <path
               class="cls-2"
               d="M 15.04,28.5 C 11.99,28.06 11.16,25 8.38,24.71 c 0.61,1.38 0.42,3.03 -0.58,4.24 2.41,1.34 4.78,1.41 7.24,-0.45 z"
               id="path21" />
            <path
               class="cls-2"
               d="M 6.19,22.59 C 5.96,21.03 4.86,19.69 3.78,18.41 2.28,16.64 0.44,14.17 0.61,11.82 c -1.3,4.2 -0.37,8.74 1.33,11.51 1.18,-1.07 2.84,-1.31 4.24,-0.75 z"
               id="path22" />
          </g>
          <g
             id="g27">
            <g
               id="g24">
              <path
                 class="cls-2"
                 d="m 28.76,2.26 c 1.3,1.3 1.3,3.4 0,4.7 -1.3,1.3 -3.4,1.3 -4.7,0 -1.3,-1.3 -1.3,-3.4 0,-4.7 1.3,-1.3 3.4,-1.3 4.7,0 z"
                 id="path23" />
              <path
                 class="cls-2"
                 d="m 6.96,24.07 c 1.3,1.3 1.3,3.4 0,4.7 -1.3,1.3 -3.4,1.3 -4.7,0 -1.3,-1.3 -1.3,-3.4 0,-4.7 1.3,-1.3 3.4,-1.3 4.7,0 z"
                 id="path24" />
            </g>
            <g
               id="g26">
              <path
                 class="cls-2"
                 d="m 28.76,28.76 c -1.3,1.3 -3.4,1.3 -4.7,0 -1.3,-1.3 -1.3,-3.4 0,-4.7 1.3,-1.3 3.4,-1.3 4.7,0 1.3,1.3 1.3,3.4 0,4.7 z"
                 id="path25" />
              <path
                 class="cls-2"
                 d="m 6.96,6.96 c -1.3,1.3 -3.4,1.3 -4.7,0 -1.3,-1.3 -1.3,-3.4 0,-4.7 1.3,-1.3 3.4,-1.3 4.7,0 1.3,1.3 1.3,3.4 0,4.7 z"
                 id="path26" />
            </g>
          </g>
        </g>
        <path
           class="cls-2"
           d="m 14.1,18.31 v 1.17 h 2.83 v -2.55 l 2.43,2.35 c 0.2,0.19 0.19,0.3 0.19,0.49 v 0.8 c 0,0 0,0.02 0,0.04 v 0 c 0,0 0,0.03 0,0.04 v 0 c 0,0 0,0.03 0,0.04 v 0 c 0,0 0,0.02 0,0.03 v 0 c 0,0 0,0.03 0,0.04 v 0 c 0,0 0,0.03 0,0.04 v 0 c 0,0 0,0.03 0,0.03 v 0 c 0,0 0,0.03 0,0.04 v 0 c 0,0 0,0.03 0,0.04 v 0 c 0,0 0,0.03 0,0.03 v 0 c 0,0 0,0.03 0,0.04 v 0 c 0,0 0,0.02 0,0.04 v 0 c 0,0 0,0.03 0,0.03 v 0 c 0,0 0,0.03 -0.01,0.04 v 0 c 0,0 0,0.03 -0.01,0.03 v 0 c 0,0 0,0.02 0,0.03 v 0 c 0,0 0,0.03 -0.01,0.04 v 0 c 0,0 0,0.02 -0.01,0.03 v 0 c 0,0 0,0.02 -0.01,0.03 v 0 c 0,0 0,0.03 -0.01,0.04 v 0 c 0,0 0,0.02 -0.01,0.03 v 0 c 0,0 0,0.02 -0.01,0.03 v 0 c 0,0 -0.01,0.03 -0.02,0.04 v 0 c 0,0 0,0.02 -0.01,0.03 v 0 c 0,0 0,0.02 -0.01,0.03 v 0 c 0,0 0,0.03 -0.02,0.03 v 0 c 0,0 0,0.02 -0.01,0.03 v 0 c 0,0 -0.01,0.02 -0.02,0.03 0,0 0,0 -0.01,0.01 0,0 0,0.01 -0.01,0.02 v 0 c 0,0 0,0.02 -0.01,0.02 0,0 0,0 -0.01,0.01 0,0 -0.01,0.01 -0.02,0.02 0,0 0,0 -0.01,0.01 0,0 0,0 -0.01,0.01 h -0.01 c 0,0 -0.01,0.02 -0.01,0.02 0,0 0,0 -0.01,0.01 v 0 c 0,0 -0.01,0.01 -0.02,0.02 v 0 c 0,0 0,0 -0.01,0.01 0,0 0,0 -0.01,0.01 h -0.01 c 0,0 -0.01,0.02 -0.01,0.02 0,0 -0.02,0.01 -0.02,0.02 h -0.01 c 0,0 0,0.02 -0.01,0.02 h -0.01 c 0,0 0,0.02 -0.01,0.02 0,0 0,0 -0.01,0 0,0 -0.02,0.01 -0.03,0.02 v 0 c 0,0 -0.01,0.01 -0.02,0.02 h -0.01 c 0,0 -0.01,0.01 -0.02,0.02 h -0.01 c 0,0 -0.02,0.02 -0.03,0.02 h -0.01 c 0,0 -0.01,0.01 -0.02,0.02 h -0.01 c 0,0 -0.01,0.01 -0.02,0.02 v 0 c 0,0 -0.02,0.02 -0.03,0.02 h -0.01 c 0,0 -0.02,0.01 -0.02,0.01 0,0 0,0 -0.01,0 -0.2,0.09 -0.41,0.14 -0.64,0.14 h -3.91 v 1.17 l -2.5,-2.48 2.5,-2.48 v 0 z m 2.83,-4.21 h 2.55 v 2.83 h -1.17 l 2.48,2.5 2.48,-2.5 H 22.1 v -3.91 c 0,-0.23 -0.05,-0.45 -0.14,-0.64 0,0 0,0 0,-0.01 v -0.02 c 0,0 -0.01,-0.01 -0.01,-0.01 0,-0.01 -0.01,-0.02 -0.02,-0.03 v 0 c 0,0 0,-0.02 0,-0.02 v 0 c 0,0 0,-0.02 0,-0.03 v 0 c 0,0 -0.01,-0.03 -0.02,-0.04 v 0 c 0,0 0,-0.02 -0.01,-0.03 v 0 c 0,0 0,-0.02 -0.01,-0.03 v 0 c 0,0 -0.01,-0.03 -0.02,-0.04 0,0 0,0 0,-0.01 0,0 0,0 -0.01,-0.01 v 0 c 0,0 0,-0.02 -0.01,-0.03 v 0 c 0,0 -0.01,-0.03 -0.02,-0.03 h -0.01 c 0,0 -0.01,-0.02 -0.01,-0.02 0,0 0,0 -0.01,-0.01 0,0 0,0 -0.01,-0.01 v 0 c 0,0 -0.01,-0.01 -0.02,-0.02 v 0 c 0,0 0,0 -0.01,-0.01 h -0.01 c 0,0 -0.01,-0.02 -0.01,-0.02 0,0 0,0 -0.01,-0.01 0,0 0,0 -0.01,-0.01 0,0 -0.01,-0.01 -0.02,-0.02 0,0 0,0 -0.01,0 0,0 0,0 -0.01,-0.01 h -0.01 c 0,0 -0.01,-0.02 -0.02,-0.02 0,0 0,0 -0.01,-0.01 0,0 -0.01,-0.01 -0.02,-0.01 h -0.01 c 0,0 0,-0.02 -0.01,-0.02 h -0.01 c 0,0 -0.01,-0.02 -0.02,-0.02 h -0.01 c 0,0 -0.01,-0.02 -0.02,-0.02 h -0.01 c 0,0 -0.01,-0.02 -0.02,-0.02 H 21.5 c 0,0 -0.02,-0.02 -0.03,-0.02 v 0 c 0,0 -0.01,-0.01 -0.02,-0.02 h -0.01 c 0,0 -0.01,-0.01 -0.02,-0.02 v 0 c 0,0 -0.02,-0.02 -0.03,-0.02 v 0 c 0,0 -0.01,-0.01 -0.02,-0.02 h -0.01 c 0,0 -0.02,-0.01 -0.02,-0.02 v 0 c 0,0 -0.02,-0.01 -0.03,-0.02 v 0 c 0,0 -0.01,0 -0.02,-0.01 h -0.01 c 0,0 -0.02,-0.01 -0.03,-0.01 v 0 c 0,0 -0.02,0 -0.03,-0.01 h -0.01 c 0,0 -0.01,0 -0.02,-0.01 v 0 c 0,0 -0.02,0 -0.03,-0.01 v 0 c 0,0 -0.02,0 -0.03,0 v 0 c 0,0 -0.02,0 -0.03,0 v 0 c 0,0 -0.02,0 -0.03,0 v 0 c 0,0 -0.02,0 -0.03,0 h -0.01 c 0,0 -0.02,0 -0.03,0 v 0 c 0,0 -0.02,0 -0.03,0 v 0 c 0,0 -0.02,0 -0.03,0 h -0.01 c 0,0 -0.02,0 -0.03,0 v 0 c 0,0 -0.02,0 -0.04,0 v 0 c 0,0 -0.02,0 -0.03,0 h -0.01 c 0,0 -0.02,0 -0.04,0 h -0.8 c -0.18,0 -0.29,-0.02 -0.49,0.19 l -2.35,2.43 v 0 z M 14.1,16.93 H 11.55 V 14.1 h 1.17 l -2.48,-2.5 -2.48,2.5 h 1.17 v 3.91 c 0,0.23 0.05,0.45 0.14,0.64 0,0 0,0 0,0.01 v 0.02 c 0,0 0.01,0.01 0.01,0.01 0,0.01 0.01,0.02 0.02,0.03 v 0 c 0,0 0,0.02 0,0.02 v 0 c 0,0 0,0.02 0,0.03 v 0 c 0,0 0.01,0.03 0.02,0.04 v 0 c 0,0 0,0.02 0.01,0.03 v 0 c 0,0 0,0.02 0.01,0.03 v 0 c 0,0 0.01,0.03 0.02,0.04 0,0 0,0 0,0.01 0,0 0,0 0.01,0.01 v 0 c 0,0 0,0.02 0.01,0.03 v 0 c 0,0 0.01,0.03 0.02,0.04 h 0.01 c 0,0 0.01,0.02 0.01,0.02 0,0 0,0 0.01,0.01 0,0 0,0 0.01,0.01 v 0 c 0,0 0.01,0.01 0.02,0.02 v 0 c 0,0 0,0 0.01,0.01 h 0.01 c 0,0 0.01,0.02 0.01,0.02 0,0 0,0 0.01,0.01 0,0 0,0 0.01,0.01 0,0 0.01,0.01 0.02,0.02 0,0 0,0 0.01,0.01 0,0 0,0 0.01,0.01 h 0.01 c 0,0 0.01,0.02 0.02,0.02 0,0 0,0 0.01,0.01 0,0 0.01,0.01 0.02,0.01 h 0.01 c 0,0 0,0.02 0.01,0.02 h 0.01 c 0,0 0.01,0.02 0.02,0.02 h 0.01 c 0,0 0.01,0.02 0.02,0.02 H 9.5 c 0,0 0.01,0.02 0.02,0.02 h 0.01 c 0,0 0.02,0.02 0.03,0.02 v 0 c 0,0 0.01,0.01 0.02,0.02 h 0.01 c 0,0 0.01,0.01 0.02,0.02 v 0 c 0,0 0.02,0.02 0.03,0.02 v 0 c 0,0 0.01,0.01 0.02,0.02 v 0 c 0,0 0.02,0.01 0.02,0.02 v 0 c 0,0 0.02,0.01 0.03,0.02 v 0 c 0,0 0.01,0.01 0.02,0.01 h 0.01 c 0,0 0.02,0.01 0.03,0.01 v 0 c 0,0 0.02,0 0.03,0.01 v 0 c 0,0 0.02,0 0.02,0.01 h 0.01 c 0,0 0.02,0 0.03,0.01 v 0 c 0,0 0.02,0 0.03,0 v 0 c 0,0 0.02,0 0.03,0 v 0 c 0,0 0.02,0 0.03,0 v 0 c 0,0 0.02,0 0.03,0 h 0.01 c 0,0 0.02,0 0.03,0 v 0 c 0,0 0.02,0 0.03,0 v 0 c 0,0 0.02,0 0.03,0 h 0.01 c 0,0 0.02,0 0.03,0 v 0 c 0,0 0.02,0 0.04,0 v 0 c 0,0 0.02,0 0.03,0 h 0.01 c 0,0 0.02,0 0.04,0 h 0.8 c 0.18,0 0.29,0.02 0.49,-0.19 l 2.35,-2.43 v 0 z m 0,-2.83 -2.43,-2.35 c -0.21,-0.2 -0.19,-0.3 -0.19,-0.49 v -0.8 c 0,0 0,-0.02 0,-0.03 v 0 c 0,0 0,-0.03 0,-0.04 v 0 c 0,0 0,-0.03 0,-0.05 v 0 c 0,0 0,-0.02 0,-0.04 v 0 c 0,0 0,-0.03 0,-0.04 v 0 c 0,0 0,-0.03 0,-0.04 v 0 c 0,0 0,-0.03 0,-0.03 v 0 c 0,0 0,-0.03 0,-0.04 v 0 c 0,0 0,-0.03 0,-0.04 v 0 c 0,0 0,-0.03 0,-0.03 v 0 c 0,0 0,-0.03 0,-0.04 v 0 c 0,0 0,-0.02 0.01,-0.04 v 0 c 0,0 0,-0.02 0,-0.03 v 0 c 0,0 0,-0.03 0.01,-0.04 v 0 c 0,0 0,-0.02 0,-0.03 v 0 c 0,0 0,-0.03 0,-0.03 v 0 c 0,0 0,-0.03 0.01,-0.04 v 0 c 0,0 0,-0.02 0.01,-0.03 v 0 c 0,0 0,-0.02 0.01,-0.03 v 0 c 0,0 0,-0.03 0.01,-0.04 v 0 c 0,0 0,-0.02 0.01,-0.03 v 0 c 0,0 0,-0.02 0.01,-0.03 v 0 c 0,0 0.01,-0.03 0.02,-0.04 v 0 c 0,0 0,-0.02 0.01,-0.03 v 0 c 0,0 0,-0.02 0.01,-0.03 v 0 c 0,0 0,-0.03 0.02,-0.03 v 0 c 0,0 0,-0.02 0.01,-0.03 v 0 c 0,0 0.01,-0.02 0.01,-0.03 0,0 0,0 0.01,-0.01 0,0 0,-0.01 0.01,-0.02 v 0 c 0,0 0,-0.02 0.01,-0.02 0,0 0,0 0.01,-0.01 0,0 0.01,-0.01 0.02,-0.02 0,0 0,0 0.01,-0.01 0,0 0,0 0.01,-0.01 h 0.01 c 0,0 0.01,-0.02 0.01,-0.02 0,0 0,0 0.01,-0.01 v 0 c 0,0 0.01,-0.01 0.02,-0.02 v 0 c 0,0 0,0 0.01,-0.01 0,0 0,0 0.01,-0.01 h 0.01 c 0,0 0.01,-0.02 0.01,-0.02 0,0 0.02,-0.01 0.02,-0.02 h 0.01 c 0,0 0,-0.02 0.01,-0.02 h 0.01 c 0,0 0,-0.02 0.01,-0.02 0,0 0,0 0.01,0 0,0 0.02,-0.01 0.03,-0.02 v 0 c 0,0 0.01,-0.01 0.02,-0.02 h 0.01 c 0,0 0.01,-0.01 0.02,-0.02 h 0.01 c 0,0 0.02,-0.02 0.03,-0.02 h 0.01 c 0,0 0.01,-0.01 0.02,-0.02 h 0.01 c 0,0 0.01,-0.01 0.02,-0.02 v 0 c 0,0 0.02,-0.02 0.03,-0.02 h 0.01 c 0,0 0.02,-0.01 0.02,-0.01 0,0 0,0 0.01,0 0.2,-0.09 0.41,-0.14 0.64,-0.14 h 3.91 V 7.77 l 2.5,2.48 -2.5,2.48 v -1.17 h -2.83 v 2.55 z"
           id="path28" />
      </g>
    </g>
  </g>
</svg>
